<svg width="127" height="19" viewBox="0 0 127 19" fill="none" xmlns="http://www.w3.org/2000/svg">
    <path opacity="0.9"
        d="M5.816 0.696C6.76 0.696 7.488 0.8 8 1.008C8.512 1.2 8.952 1.408 9.32 1.632C9.512 1.744 9.664 1.832 9.776 1.896C9.904 1.944 10.024 1.968 10.136 1.968C10.296 1.968 10.408 1.88 10.472 1.704C10.552 1.528 10.616 1.264 10.664 0.912H11.216C11.2 1.216 11.176 1.584 11.144 2.016C11.128 2.432 11.112 2.984 11.096 3.672C11.096 4.36 11.096 5.264 11.096 6.384H10.544C10.48 5.552 10.288 4.744 9.968 3.96C9.648 3.176 9.192 2.536 8.6 2.04C8.024 1.528 7.312 1.272 6.464 1.272C5.696 1.272 5.064 1.488 4.568 1.92C4.072 2.352 3.824 2.952 3.824 3.72C3.824 4.36 3.984 4.912 4.304 5.376C4.624 5.824 5.088 6.264 5.696 6.696C6.32 7.128 7.072 7.648 7.952 8.256C8.72 8.752 9.408 9.248 10.016 9.744C10.624 10.24 11.112 10.8 11.48 11.424C11.848 12.048 12.032 12.792 12.032 13.656C12.032 14.712 11.752 15.584 11.192 16.272C10.648 16.96 9.928 17.48 9.032 17.832C8.136 18.168 7.152 18.336 6.08 18.336C5.088 18.336 4.296 18.24 3.704 18.048C3.112 17.856 2.616 17.656 2.216 17.448C1.864 17.224 1.592 17.112 1.4 17.112C1.24 17.112 1.12 17.2 1.04 17.376C0.976 17.552 0.92 17.816 0.872 18.168H0.32C0.352 17.784 0.368 17.336 0.368 16.824C0.384 16.312 0.392 15.648 0.392 14.832C0.408 14 0.416 12.952 0.416 11.688H0.968C1.032 12.744 1.208 13.736 1.496 14.664C1.8 15.576 2.256 16.312 2.864 16.872C3.488 17.432 4.312 17.712 5.336 17.712C5.896 17.712 6.392 17.616 6.824 17.424C7.272 17.216 7.632 16.912 7.904 16.512C8.176 16.112 8.312 15.616 8.312 15.024C8.312 14.352 8.152 13.768 7.832 13.272C7.528 12.776 7.104 12.312 6.56 11.88C6.032 11.448 5.416 11.008 4.712 10.56C3.96 10.064 3.256 9.568 2.6 9.072C1.944 8.576 1.416 8.008 1.016 7.368C0.632 6.728 0.44 5.968 0.44 5.088C0.44 4.08 0.688 3.256 1.184 2.616C1.696 1.96 2.36 1.48 3.176 1.176C4.008 0.855999 4.888 0.696 5.816 0.696ZM29.1196 1.008V1.488C28.6076 1.552 28.2156 1.688 27.9436 1.896C27.6876 2.088 27.5196 2.4 27.4396 2.832C27.3596 3.264 27.3196 3.872 27.3196 4.656V11.016C27.3196 12.056 27.2476 13.008 27.1036 13.872C26.9596 14.736 26.7036 15.48 26.3356 16.104C25.9196 16.792 25.3116 17.336 24.5116 17.736C23.7116 18.136 22.6956 18.336 21.4636 18.336C20.7276 18.336 19.9756 18.248 19.2076 18.072C18.4396 17.912 17.7516 17.6 17.1436 17.136C16.6316 16.704 16.2396 16.216 15.9676 15.672C15.6956 15.128 15.5116 14.488 15.4156 13.752C15.3196 13 15.2716 12.112 15.2716 11.088V3.552C15.2716 2.96 15.2236 2.528 15.1276 2.256C15.0476 1.968 14.8796 1.776 14.6236 1.68C14.3676 1.568 13.9836 1.504 13.4716 1.488V1.008C13.8716 1.024 14.4076 1.04 15.0796 1.056C15.7676 1.072 16.4796 1.08 17.2156 1.08C17.9516 1.08 18.6556 1.072 19.3276 1.056C20.0156 1.04 20.5836 1.024 21.0316 1.008V1.488C20.4876 1.504 20.0716 1.568 19.7836 1.68C19.5116 1.776 19.3276 1.968 19.2316 2.256C19.1356 2.528 19.0876 2.96 19.0876 3.552V12.6C19.0876 13.4 19.1356 14.112 19.2316 14.736C19.3436 15.344 19.5196 15.856 19.7596 16.272C20.0156 16.672 20.3596 16.976 20.7916 17.184C21.2236 17.392 21.7596 17.496 22.3996 17.496C23.5196 17.496 24.3916 17.232 25.0156 16.704C25.6556 16.176 26.1036 15.448 26.3596 14.52C26.6316 13.576 26.7676 12.496 26.7676 11.28V4.944C26.7676 4.064 26.7116 3.392 26.5996 2.928C26.4876 2.448 26.2636 2.104 25.9276 1.896C25.6076 1.688 25.1116 1.552 24.4396 1.488V1.008C24.7436 1.024 25.1436 1.04 25.6396 1.056C26.1356 1.072 26.5996 1.08 27.0316 1.08C27.4156 1.08 27.7916 1.072 28.1596 1.056C28.5436 1.04 28.8636 1.024 29.1196 1.008ZM36.3785 0.696C37.3225 0.696 38.0505 0.8 38.5625 1.008C39.0745 1.2 39.5145 1.408 39.8825 1.632C40.0745 1.744 40.2265 1.832 40.3385 1.896C40.4665 1.944 40.5865 1.968 40.6985 1.968C40.8585 1.968 40.9705 1.88 41.0345 1.704C41.1145 1.528 41.1785 1.264 41.2265 0.912H41.7785C41.7625 1.216 41.7385 1.584 41.7065 2.016C41.6905 2.432 41.6745 2.984 41.6585 3.672C41.6585 4.36 41.6585 5.264 41.6585 6.384H41.1065C41.0425 5.552 40.8505 4.744 40.5305 3.96C40.2105 3.176 39.7545 2.536 39.1625 2.04C38.5865 1.528 37.8745 1.272 37.0265 1.272C36.2585 1.272 35.6265 1.488 35.1305 1.92C34.6345 2.352 34.3865 2.952 34.3865 3.72C34.3865 4.36 34.5465 4.912 34.8665 5.376C35.1865 5.824 35.6505 6.264 36.2585 6.696C36.8825 7.128 37.6345 7.648 38.5145 8.256C39.2825 8.752 39.9705 9.248 40.5785 9.744C41.1865 10.24 41.6745 10.8 42.0425 11.424C42.4105 12.048 42.5945 12.792 42.5945 13.656C42.5945 14.712 42.3145 15.584 41.7545 16.272C41.2105 16.96 40.4905 17.48 39.5945 17.832C38.6985 18.168 37.7145 18.336 36.6425 18.336C35.6505 18.336 34.8585 18.24 34.2665 18.048C33.6745 17.856 33.1785 17.656 32.7785 17.448C32.4265 17.224 32.1545 17.112 31.9625 17.112C31.8025 17.112 31.6825 17.2 31.6025 17.376C31.5385 17.552 31.4825 17.816 31.4345 18.168H30.8825C30.9145 17.784 30.9305 17.336 30.9305 16.824C30.9465 16.312 30.9545 15.648 30.9545 14.832C30.9705 14 30.9785 12.952 30.9785 11.688H31.5305C31.5945 12.744 31.7705 13.736 32.0585 14.664C32.3625 15.576 32.8185 16.312 33.4265 16.872C34.0505 17.432 34.8745 17.712 35.8985 17.712C36.4585 17.712 36.9545 17.616 37.3865 17.424C37.8345 17.216 38.1945 16.912 38.4665 16.512C38.7385 16.112 38.8745 15.616 38.8745 15.024C38.8745 14.352 38.7145 13.768 38.3945 13.272C38.0905 12.776 37.6665 12.312 37.1225 11.88C36.5945 11.448 35.9785 11.008 35.2745 10.56C34.5225 10.064 33.8185 9.568 33.1625 9.072C32.5065 8.576 31.9785 8.008 31.5785 7.368C31.1945 6.728 31.0025 5.968 31.0025 5.088C31.0025 4.08 31.2505 3.256 31.7465 2.616C32.2585 1.96 32.9225 1.48 33.7385 1.176C34.5705 0.855999 35.4505 0.696 36.3785 0.696ZM54.5701 18V17.52C55.0821 17.488 55.4661 17.424 55.7221 17.328C55.9781 17.232 56.1461 17.04 56.2261 16.752C56.3221 16.464 56.3701 16.032 56.3701 15.456V3.552C56.3701 2.96 56.3221 2.528 56.2261 2.256C56.1461 1.968 55.9701 1.776 55.6981 1.68C55.4421 1.568 55.0661 1.504 54.5701 1.488V1.008C55.0021 1.024 55.5621 1.04 56.2501 1.056C56.9541 1.072 57.6501 1.08 58.3381 1.08C59.0741 1.08 59.7621 1.072 60.4021 1.056C61.0581 1.04 61.5861 1.024 61.9861 1.008V1.488C61.4741 1.504 61.0821 1.568 60.8101 1.68C60.5541 1.776 60.3861 1.968 60.3061 2.256C60.2261 2.528 60.1861 2.96 60.1861 3.552V15.456C60.1861 16.032 60.2261 16.464 60.3061 16.752C60.4021 17.04 60.5781 17.232 60.8341 17.328C61.0901 17.424 61.4741 17.488 61.9861 17.52V18C61.5861 17.968 61.0581 17.952 60.4021 17.952C59.7621 17.936 59.0741 17.928 58.3381 17.928C57.6501 17.928 56.9541 17.936 56.2501 17.952C55.5621 17.952 55.0021 17.968 54.5701 18ZM44.3941 18V17.52C44.9061 17.488 45.2901 17.424 45.5461 17.328C45.8021 17.232 45.9701 17.04 46.0501 16.752C46.1461 16.464 46.1941 16.032 46.1941 15.456V3.552C46.1941 2.96 46.1461 2.528 46.0501 2.256C45.9701 1.968 45.7941 1.776 45.5221 1.68C45.2661 1.568 44.8901 1.504 44.3941 1.488V1.008C44.8101 1.024 45.3461 1.04 46.0021 1.056C46.6741 1.072 47.4021 1.08 48.1861 1.08C48.8581 1.08 49.5221 1.072 50.1781 1.056C50.8341 1.04 51.3781 1.024 51.8101 1.008V1.488C51.2981 1.504 50.9061 1.568 50.6341 1.68C50.3781 1.776 50.2101 1.968 50.1301 2.256C50.0501 2.528 50.0101 2.96 50.0101 3.552V15.456C50.0101 16.032 50.0501 16.464 50.1301 16.752C50.2261 17.04 50.4021 17.232 50.6581 17.328C50.9141 17.424 51.2981 17.488 51.8101 17.52V18C51.3781 17.968 50.8341 17.952 50.1781 17.952C49.5221 17.936 48.8581 17.928 48.1861 17.928C47.4021 17.928 46.6741 17.936 46.0021 17.952C45.3461 17.952 44.8101 17.968 44.3941 18ZM48.4501 9.696V9.216H57.9301V9.696H48.4501ZM71.0054 1.008V1.488C70.4934 1.504 70.1014 1.568 69.8294 1.68C69.5734 1.776 69.4054 1.968 69.3254 2.256C69.2454 2.528 69.2054 2.96 69.2054 3.552V15.456C69.2054 16.032 69.2454 16.464 69.3254 16.752C69.4214 17.04 69.5974 17.232 69.8534 17.328C70.1094 17.424 70.4934 17.488 71.0054 17.52V18C70.5734 17.968 70.0294 17.952 69.3734 17.952C68.7174 17.936 68.0534 17.928 67.3814 17.928C66.5974 17.928 65.8694 17.936 65.1974 17.952C64.5414 17.952 64.0054 17.968 63.5894 18V17.52C64.1014 17.488 64.4854 17.424 64.7414 17.328C64.9974 17.232 65.1654 17.04 65.2454 16.752C65.3414 16.464 65.3894 16.032 65.3894 15.456V3.552C65.3894 2.96 65.3414 2.528 65.2454 2.256C65.1654 1.968 64.9894 1.776 64.7174 1.68C64.4614 1.568 64.0854 1.504 63.5894 1.488V1.008C64.0054 1.024 64.5414 1.04 65.1974 1.056C65.8694 1.072 66.5974 1.08 67.3814 1.08C68.0534 1.08 68.7174 1.072 69.3734 1.056C70.0294 1.04 70.5734 1.024 71.0054 1.008ZM93.2529 1.008V1.488C92.7409 1.504 92.3569 1.568 92.1009 1.68C91.8449 1.776 91.6689 1.968 91.5729 2.256C91.4929 2.528 91.4529 2.96 91.4529 3.552V15.456C91.4529 16.032 91.4929 16.464 91.5729 16.752C91.6689 17.04 91.8449 17.232 92.1009 17.328C92.3569 17.424 92.7409 17.488 93.2529 17.52V18C92.8049 17.968 92.2369 17.952 91.5489 17.952C90.8769 17.936 90.1889 17.928 89.4849 17.928C88.7169 17.928 87.9969 17.936 87.3249 17.952C86.6529 17.952 86.1089 17.968 85.6929 18V17.52C86.2369 17.488 86.6449 17.424 86.9169 17.328C87.2049 17.232 87.3969 17.04 87.4929 16.752C87.5889 16.464 87.6369 16.032 87.6369 15.456V2.472H87.8049L81.8529 18.024H81.4689L74.9889 2.568V14.064C74.9889 14.944 75.0369 15.624 75.1329 16.104C75.2289 16.568 75.4369 16.904 75.7569 17.112C76.0929 17.304 76.6129 17.44 77.3169 17.52V18C77.0129 17.968 76.6129 17.952 76.1169 17.952C75.6209 17.936 75.1569 17.928 74.7249 17.928C74.3569 17.928 73.9809 17.936 73.5969 17.952C73.2129 17.952 72.8929 17.968 72.6369 18V17.52C73.1489 17.44 73.5329 17.304 73.7889 17.112C74.0449 16.92 74.2129 16.608 74.2929 16.176C74.3889 15.728 74.4369 15.12 74.4369 14.352V3.552C74.4369 2.96 74.3889 2.528 74.2929 2.256C74.2129 1.968 74.0369 1.776 73.7649 1.68C73.5089 1.568 73.1329 1.504 72.6369 1.488V1.008C72.8929 1.024 73.2129 1.04 73.5969 1.056C73.9809 1.072 74.3569 1.08 74.7249 1.08C75.4129 1.08 76.0849 1.072 76.7409 1.056C77.4129 1.04 78.0049 1.024 78.5169 1.008L83.5569 13.176L82.9569 13.728L87.7809 1.08C88.0529 1.08 88.3329 1.08 88.6209 1.08C88.9089 1.08 89.1969 1.08 89.4849 1.08C90.1889 1.08 90.8769 1.072 91.5489 1.056C92.2369 1.04 92.8049 1.024 93.2529 1.008ZM102.871 0.959999L108.703 15.984C108.927 16.56 109.175 16.96 109.447 17.184C109.735 17.392 109.991 17.504 110.215 17.52V18C109.735 17.968 109.167 17.952 108.511 17.952C107.871 17.936 107.223 17.928 106.567 17.928C105.831 17.928 105.135 17.936 104.479 17.952C103.823 17.952 103.303 17.968 102.919 18V17.52C103.735 17.488 104.247 17.352 104.455 17.112C104.679 16.856 104.631 16.32 104.311 15.504L100.231 4.344L100.663 3.72L97.0151 13.224C96.6631 14.104 96.4471 14.824 96.3671 15.384C96.3031 15.944 96.3431 16.376 96.4871 16.68C96.6471 16.984 96.8951 17.2 97.2311 17.328C97.5831 17.44 97.9991 17.504 98.4791 17.52V18C97.9511 17.968 97.4471 17.952 96.9671 17.952C96.4871 17.936 95.9991 17.928 95.5031 17.928C95.1511 17.928 94.8151 17.936 94.4951 17.952C94.1911 17.952 93.9191 17.968 93.6791 18V17.52C94.0151 17.456 94.3591 17.24 94.7111 16.872C95.0631 16.504 95.4071 15.88 95.7431 15L101.215 0.959999C101.471 0.975999 101.743 0.983999 102.031 0.983999C102.335 0.983999 102.615 0.975999 102.871 0.959999ZM104.551 11.088V11.568H97.3991L97.6391 11.088H104.551ZM126.21 1.008V1.488C125.698 1.552 125.314 1.688 125.058 1.896C124.802 2.088 124.626 2.4 124.53 2.832C124.45 3.264 124.41 3.872 124.41 4.656V18.048C124.218 18.032 124.018 18.024 123.81 18.024C123.618 18.024 123.41 18.032 123.186 18.048L112.77 4.848V14.064C112.77 14.944 112.818 15.624 112.914 16.104C113.01 16.568 113.218 16.904 113.538 17.112C113.874 17.304 114.394 17.44 115.098 17.52V18C114.794 17.968 114.394 17.952 113.898 17.952C113.402 17.936 112.938 17.928 112.506 17.928C112.138 17.928 111.762 17.936 111.378 17.952C110.994 17.952 110.674 17.968 110.418 18V17.52C110.93 17.44 111.314 17.304 111.57 17.112C111.826 16.92 111.994 16.608 112.074 16.176C112.17 15.728 112.218 15.12 112.218 14.352V3.552C112.218 2.96 112.17 2.528 112.074 2.256C111.994 1.968 111.818 1.776 111.546 1.68C111.29 1.568 110.914 1.504 110.418 1.488V1.008C110.674 1.024 110.994 1.04 111.378 1.056C111.762 1.072 112.138 1.08 112.506 1.08C112.89 1.08 113.258 1.072 113.61 1.056C113.962 1.04 114.282 1.024 114.57 1.008L123.858 12.456V4.944C123.858 4.064 123.81 3.392 123.714 2.928C123.618 2.448 123.402 2.104 123.066 1.896C122.746 1.688 122.234 1.552 121.53 1.488V1.008C121.834 1.024 122.234 1.04 122.73 1.056C123.226 1.072 123.69 1.08 124.122 1.08C124.506 1.08 124.882 1.072 125.25 1.056C125.634 1.04 125.954 1.024 126.21 1.008Z"
        fill="white" />
</svg>