<svg width="42" height="42" viewBox="0 0 42 42" fill="none" xmlns="http://www.w3.org/2000/svg">
    <circle cx="21" cy="21" r="21" fill="#121212" />
    <path
        d="M17.9753 29.9999C25.1455 29.9999 29.0665 23.8448 29.0665 18.5075C29.0665 18.3327 29.0631 18.1586 29.0555 17.9855C29.8166 17.4153 30.4781 16.7037 31 15.8938C30.3016 16.2156 29.5498 16.432 28.7614 16.5299C29.5662 16.0296 30.1841 15.2386 30.4755 14.2957C29.7223 14.7584 28.8882 15.0945 28.0002 15.2761C27.2889 14.491 26.2761 14 25.1547 14C23.0021 14 21.2563 15.8088 21.2563 18.0386C21.2563 18.3557 21.2906 18.6639 21.3574 18.9596C18.1176 18.7907 15.2446 17.1835 13.3222 14.7395C12.9875 15.3363 12.7944 16.0298 12.7944 16.7697C12.7944 18.1709 13.4826 19.4082 14.5291 20.1318C13.8895 20.1114 13.2888 19.9295 12.7636 19.6267C12.763 19.6437 12.763 19.6602 12.763 19.6782C12.763 21.6344 14.1067 23.2677 15.8906 23.6378C15.5629 23.7301 15.2182 23.7799 14.8626 23.7799C14.6119 23.7799 14.3674 23.7543 14.1299 23.707C14.6262 25.3119 16.0654 26.4797 17.7715 26.5125C16.4373 27.5961 14.7566 28.2415 12.9299 28.2415C12.6157 28.2415 12.3051 28.2228 12 28.1855C13.7252 29.3313 15.7738 30 17.9755 30"
        fill="white" />
</svg>